<svg xmlns="http://www.w3.org/2000/svg" width="99.939" height="36.441" viewBox="0 0 99.939 36.441">
  <path id="Blick_Logo_Rot_RGB" d="M14.157,21.671H8.328V28.3h5.829a3.313,3.313,0,1,0,0-6.626M12.91,9.8H8.328v6.35H12.91a3.175,3.175,0,1,0,0-6.35M26.1,25.4A10.243,10.243,0,0,1,15.824,35.611H0V2.485H14.713a9.69,9.69,0,0,1,9.717,9.663,9.573,9.573,0,0,1-1.8,5.6A10.167,10.167,0,0,1,26.1,25.4M41.641,35.611h8.328V12.423H41.641v23.19Zm58.3,0H90.222l-6.94-9.2v9.2H74.954V1.381h8.328V20.7l6.663-8.282h9.439L90.5,23.465Zm-71.068,0H37.2V1.381H28.871V35.613ZM41.085,4.694A4.719,4.719,0,1,1,45.8,9.386a4.707,4.707,0,0,1-4.718-4.692M68.847,19.6l3.608-5.8A12.162,12.162,0,0,0,65.237,11.6a12.423,12.423,0,1,0,0,24.846,12.162,12.162,0,0,0,7.218-2.209l-3.608-5.8a6.751,6.751,0,0,1-3.054.828,5.245,5.245,0,1,1,0-10.491,6.776,6.776,0,0,1,3.054.828" fill="#e2271b"/>
</svg>
